<mxfile host="app.diagrams.net" agent="Mozilla/5.0 (X11; Linux x86_64; rv:131.0) Gecko/20100101 Firefox/131.0" version="25.0.3">
  <diagram name="Page-1" id="1RDQxTg15a4HZxKJA4P8">
    <mxGraphModel dx="2259" dy="843" grid="1" gridSize="10" guides="1" tooltips="1" connect="1" arrows="1" fold="1" page="1" pageScale="1" pageWidth="850" pageHeight="1100" math="0" shadow="0">
      <root>
        <mxCell id="0" />
        <mxCell id="1" parent="0" />
        <mxCell id="E5oQZFvZu7A9tOrlAqIw-7" value="Agent" style="shape=umlLifeline;perimeter=lifelinePerimeter;whiteSpace=wrap;html=1;container=1;dropTarget=0;collapsible=0;recursiveResize=0;outlineConnect=0;portConstraint=eastwest;newEdgeStyle={&quot;curved&quot;:0,&quot;rounded&quot;:0};fillColor=#fff2cc;strokeColor=#d6b656;" parent="1" vertex="1">
          <mxGeometry x="-210" y="230" width="100" height="530" as="geometry" />
        </mxCell>
        <mxCell id="E5oQZFvZu7A9tOrlAqIw-11" value="" style="html=1;points=[[0,0,0,0,5],[0,1,0,0,-5],[1,0,0,0,5],[1,1,0,0,-5]];perimeter=orthogonalPerimeter;outlineConnect=0;targetShapes=umlLifeline;portConstraint=eastwest;newEdgeStyle={&quot;curved&quot;:0,&quot;rounded&quot;:0};fillColor=#fff2cc;strokeColor=#d6b656;" parent="E5oQZFvZu7A9tOrlAqIw-7" vertex="1">
          <mxGeometry x="45" y="110" width="10" height="50" as="geometry" />
        </mxCell>
        <mxCell id="E5oQZFvZu7A9tOrlAqIw-8" value="Metadata Service" style="shape=umlLifeline;perimeter=lifelinePerimeter;whiteSpace=wrap;html=1;container=1;dropTarget=0;collapsible=0;recursiveResize=0;outlineConnect=0;portConstraint=eastwest;newEdgeStyle={&quot;curved&quot;:0,&quot;rounded&quot;:0};fillColor=#f8cecc;strokeColor=#b85450;" parent="1" vertex="1">
          <mxGeometry y="230" width="100" height="530" as="geometry" />
        </mxCell>
        <mxCell id="E5oQZFvZu7A9tOrlAqIw-13" value="" style="html=1;points=[[0,0,0,0,5],[0,1,0,0,-5],[1,0,0,0,5],[1,1,0,0,-5]];perimeter=orthogonalPerimeter;outlineConnect=0;targetShapes=umlLifeline;portConstraint=eastwest;newEdgeStyle={&quot;curved&quot;:0,&quot;rounded&quot;:0};fillColor=#f8cecc;strokeColor=#b85450;" parent="E5oQZFvZu7A9tOrlAqIw-8" vertex="1">
          <mxGeometry x="45" y="120" width="10" height="30" as="geometry" />
        </mxCell>
        <mxCell id="E5oQZFvZu7A9tOrlAqIw-9" value="Management Service" style="shape=umlLifeline;perimeter=lifelinePerimeter;whiteSpace=wrap;html=1;container=1;dropTarget=0;collapsible=0;recursiveResize=0;outlineConnect=0;portConstraint=eastwest;newEdgeStyle={&quot;curved&quot;:0,&quot;rounded&quot;:0};fillColor=#ffe6cc;strokeColor=#d79b00;" parent="1" vertex="1">
          <mxGeometry x="220" y="230" width="100" height="530" as="geometry" />
        </mxCell>
        <mxCell id="E5oQZFvZu7A9tOrlAqIw-14" value="" style="html=1;points=[[0,0,0,0,5],[0,1,0,0,-5],[1,0,0,0,5],[1,1,0,0,-5]];perimeter=orthogonalPerimeter;outlineConnect=0;targetShapes=umlLifeline;portConstraint=eastwest;newEdgeStyle={&quot;curved&quot;:0,&quot;rounded&quot;:0};fillColor=#ffe6cc;strokeColor=#d79b00;" parent="E5oQZFvZu7A9tOrlAqIw-9" vertex="1">
          <mxGeometry x="45" y="260" width="10" height="20" as="geometry" />
        </mxCell>
        <mxCell id="E5oQZFvZu7A9tOrlAqIw-12" value="1.3 Sends metadata" style="html=1;verticalAlign=bottom;endArrow=block;curved=0;rounded=0;dashed=1;dashPattern=12 12;" parent="1" source="E5oQZFvZu7A9tOrlAqIw-11" target="E5oQZFvZu7A9tOrlAqIw-13" edge="1">
          <mxGeometry x="0.05" y="5" width="80" relative="1" as="geometry">
            <mxPoint x="-150" y="350" as="sourcePoint" />
            <mxPoint x="-80" y="350" as="targetPoint" />
            <mxPoint as="offset" />
          </mxGeometry>
        </mxCell>
        <mxCell id="E5oQZFvZu7A9tOrlAqIw-15" value="alt " style="shape=umlFrame;whiteSpace=wrap;html=1;pointerEvents=0;" parent="1" vertex="1">
          <mxGeometry x="-100" y="405" width="400" height="150" as="geometry" />
        </mxCell>
        <mxCell id="E5oQZFvZu7A9tOrlAqIw-16" value="" style="html=1;points=[[0,0,0,0,5],[0,1,0,0,-5],[1,0,0,0,5],[1,1,0,0,-5]];perimeter=orthogonalPerimeter;outlineConnect=0;targetShapes=umlLifeline;portConstraint=eastwest;newEdgeStyle={&quot;curved&quot;:0,&quot;rounded&quot;:0};fillColor=#f8cecc;strokeColor=#b85450;" parent="1" vertex="1">
          <mxGeometry x="45" y="450" width="10" height="60" as="geometry" />
        </mxCell>
        <mxCell id="E5oQZFvZu7A9tOrlAqIw-17" value="[Metadata updated]" style="text;html=1;align=center;verticalAlign=middle;resizable=0;points=[];autosize=1;strokeColor=none;fillColor=none;" parent="1" vertex="1">
          <mxGeometry x="-100" y="440" width="130" height="30" as="geometry" />
        </mxCell>
        <mxCell id="E5oQZFvZu7A9tOrlAqIw-19" value="1.4.1 Sends updated metadata" style="html=1;verticalAlign=bottom;endArrow=block;curved=0;rounded=0;dashed=1;dashPattern=12 12;" parent="1" target="E5oQZFvZu7A9tOrlAqIw-14" edge="1">
          <mxGeometry x="0.0455" y="-20" width="80" relative="1" as="geometry">
            <mxPoint x="60" y="500" as="sourcePoint" />
            <mxPoint x="250" y="500" as="targetPoint" />
            <mxPoint as="offset" />
          </mxGeometry>
        </mxCell>
        <mxCell id="E5oQZFvZu7A9tOrlAqIw-20" value="[Cluster history updated]" style="text;html=1;align=center;verticalAlign=middle;resizable=0;points=[];autosize=1;strokeColor=none;fillColor=none;" parent="1" vertex="1">
          <mxGeometry x="-100" y="610" width="150" height="30" as="geometry" />
        </mxCell>
        <mxCell id="E5oQZFvZu7A9tOrlAqIw-28" value="&amp;nbsp;" style="text;whiteSpace=wrap;html=1;" parent="1" vertex="1">
          <mxGeometry x="-230" y="260" width="40" height="40" as="geometry" />
        </mxCell>
        <mxCell id="E5oQZFvZu7A9tOrlAqIw-35" value="1.4 Update metadata" style="html=1;align=left;spacingLeft=2;endArrow=block;rounded=0;edgeStyle=orthogonalEdgeStyle;curved=0;rounded=0;" parent="1" edge="1">
          <mxGeometry x="-0.058" y="5" relative="1" as="geometry">
            <mxPoint x="55" y="460" as="sourcePoint" />
            <Array as="points">
              <mxPoint x="85" y="490" />
            </Array>
            <mxPoint x="60" y="490.0434782608696" as="targetPoint" />
            <mxPoint as="offset" />
          </mxGeometry>
        </mxCell>
        <mxCell id="klYWkA8Lu3lEKMFKsZBo-3" value="" style="html=1;points=[[0,0,0,0,5],[0,1,0,0,-5],[1,0,0,0,5],[1,1,0,0,-5]];perimeter=orthogonalPerimeter;outlineConnect=0;targetShapes=umlLifeline;portConstraint=eastwest;newEdgeStyle={&quot;curved&quot;:0,&quot;rounded&quot;:0};fillColor=#ffe6cc;strokeColor=#d79b00;" parent="1" vertex="1">
          <mxGeometry x="265" y="650" width="10" height="20" as="geometry" />
        </mxCell>
        <mxCell id="klYWkA8Lu3lEKMFKsZBo-4" value="" style="html=1;points=[[0,0,0,0,5],[0,1,0,0,-5],[1,0,0,0,5],[1,1,0,0,-5]];perimeter=orthogonalPerimeter;outlineConnect=0;targetShapes=umlLifeline;portConstraint=eastwest;newEdgeStyle={&quot;curved&quot;:0,&quot;rounded&quot;:0};fillColor=#f8cecc;strokeColor=#b85450;" parent="1" vertex="1">
          <mxGeometry x="45" y="610" width="10" height="60" as="geometry" />
        </mxCell>
        <mxCell id="klYWkA8Lu3lEKMFKsZBo-5" value="1.5.1 Sends updated cluster history" style="html=1;verticalAlign=bottom;endArrow=block;curved=0;rounded=0;dashed=1;dashPattern=12 12;" parent="1" edge="1">
          <mxGeometry x="0.0244" y="-25" width="80" relative="1" as="geometry">
            <mxPoint x="60" y="659.9999999999999" as="sourcePoint" />
            <mxPoint x="265" y="660" as="targetPoint" />
            <mxPoint as="offset" />
          </mxGeometry>
        </mxCell>
        <mxCell id="klYWkA8Lu3lEKMFKsZBo-6" value="alt " style="shape=umlFrame;whiteSpace=wrap;html=1;pointerEvents=0;" parent="1" vertex="1">
          <mxGeometry x="-100" y="570" width="400" height="160" as="geometry" />
        </mxCell>
        <mxCell id="klYWkA8Lu3lEKMFKsZBo-8" value="" style="html=1;points=[[0,0,0,0,5],[0,1,0,0,-5],[1,0,0,0,5],[1,1,0,0,-5]];perimeter=orthogonalPerimeter;outlineConnect=0;targetShapes=umlLifeline;portConstraint=eastwest;newEdgeStyle={&quot;curved&quot;:0,&quot;rounded&quot;:0};fillColor=#f8cecc;strokeColor=#b85450;" parent="1" vertex="1">
          <mxGeometry x="50" y="480" width="10" height="20" as="geometry" />
        </mxCell>
        <mxCell id="klYWkA8Lu3lEKMFKsZBo-10" value="1.5 Update cluster history" style="html=1;align=left;spacingLeft=2;endArrow=block;rounded=0;edgeStyle=orthogonalEdgeStyle;curved=0;rounded=0;" parent="1" edge="1">
          <mxGeometry x="0.0588" y="5" relative="1" as="geometry">
            <mxPoint x="55" y="615" as="sourcePoint" />
            <Array as="points">
              <mxPoint x="85" y="645" />
            </Array>
            <mxPoint x="60" y="645.0434782608696" as="targetPoint" />
            <mxPoint as="offset" />
          </mxGeometry>
        </mxCell>
        <mxCell id="klYWkA8Lu3lEKMFKsZBo-11" value="" style="html=1;points=[[0,0,0,0,5],[0,1,0,0,-5],[1,0,0,0,5],[1,1,0,0,-5]];perimeter=orthogonalPerimeter;outlineConnect=0;targetShapes=umlLifeline;portConstraint=eastwest;newEdgeStyle={&quot;curved&quot;:0,&quot;rounded&quot;:0};fillColor=#f8cecc;strokeColor=#b85450;" parent="1" vertex="1">
          <mxGeometry x="50" y="635" width="10" height="20" as="geometry" />
        </mxCell>
        <mxCell id="klYWkA8Lu3lEKMFKsZBo-12" value="Kubernetes API" style="shape=umlLifeline;perimeter=lifelinePerimeter;whiteSpace=wrap;html=1;container=1;dropTarget=0;collapsible=0;recursiveResize=0;outlineConnect=0;portConstraint=eastwest;newEdgeStyle={&quot;curved&quot;:0,&quot;rounded&quot;:0};fillColor=#999999;strokeColor=#999999;" parent="1" vertex="1">
          <mxGeometry x="-410" y="230" width="100" height="530" as="geometry" />
        </mxCell>
        <mxCell id="klYWkA8Lu3lEKMFKsZBo-13" value="" style="html=1;points=[[0,0,0,0,5],[0,1,0,0,-5],[1,0,0,0,5],[1,1,0,0,-5]];perimeter=orthogonalPerimeter;outlineConnect=0;targetShapes=umlLifeline;portConstraint=eastwest;newEdgeStyle={&quot;curved&quot;:0,&quot;rounded&quot;:0};fillColor=#999999;strokeColor=#999999;" parent="klYWkA8Lu3lEKMFKsZBo-12" vertex="1">
          <mxGeometry x="45" y="110" width="10" height="50" as="geometry" />
        </mxCell>
        <mxCell id="klYWkA8Lu3lEKMFKsZBo-14" value="1.1 Requests metadata" style="html=1;verticalAlign=bottom;endArrow=block;curved=0;rounded=0;entryX=1;entryY=0;entryDx=0;entryDy=5;entryPerimeter=0;exitX=0;exitY=0;exitDx=0;exitDy=5;exitPerimeter=0;" parent="1" edge="1">
          <mxGeometry width="80" relative="1" as="geometry">
            <mxPoint x="-165" y="350" as="sourcePoint" />
            <mxPoint x="-355" y="350" as="targetPoint" />
          </mxGeometry>
        </mxCell>
        <mxCell id="klYWkA8Lu3lEKMFKsZBo-15" value="1.2 Sends metadata" style="html=1;verticalAlign=bottom;endArrow=block;curved=0;rounded=0;exitX=1;exitY=1;exitDx=0;exitDy=-5;exitPerimeter=0;" parent="1" target="E5oQZFvZu7A9tOrlAqIw-11" edge="1">
          <mxGeometry width="80" relative="1" as="geometry">
            <mxPoint x="-355" y="380" as="sourcePoint" />
            <mxPoint x="-170" y="380" as="targetPoint" />
          </mxGeometry>
        </mxCell>
      </root>
    </mxGraphModel>
  </diagram>
</mxfile>
